<?xml version="1.0" encoding="utf-8"?>
<!-- Generator: Adobe Illustrator 25.0.1, SVG Export Plug-In . SVG Version: 6.00 Build 0)  -->
<svg version="1.1" id="Layer_1" xmlns="http://www.w3.org/2000/svg" xmlns:xlink="http://www.w3.org/1999/xlink" x="0px" y="0px"
	 viewBox="0 0 1200 580" style="enable-background:new 0 0 1200 580;" xml:space="preserve">
<style type="text/css">
	.st0{fill:#FFFA72;}
	.st1{fill:#C7E1F3;}
	.st2{fill:#B8CFE6;}
	.st3{fill:#A9BEDA;}
	.st4{fill:#9AADCE;}
	.st5{fill:#8B9BC1;}
	.st6{fill:#7D8AB5;}
	.st7{fill:#6E79A9;}
	.st8{fill:#5F679C;}
	.st9{fill:#505690;}
	.st10{fill:#414584;}
	.st11{fill:#323377;}
	.st12{fill:#23226B;}
</style>
<path class="st0" d="M529.5-9.8C509.1,34,513,61.5,541,72.7c42.1,16.7,142.3,23.4,184.2,59.6c41.9,36.2,169.6,8.2,191.4-53.9
	c21.8-62.2,61.2-158-146.2-158C632.2-79.7,551.9-56.4,529.5-9.8L529.5-9.8z"/>
<path class="st1" d="M229.6,76.8c13.8,122.8,69,199.7,165.7,230.9c145,46.8,436.3,65.5,612.1,166.9c175.8,101.4,488,23,448.7-151.1
	c-39.4-174.1-84.2-442.4-664.7-442.4C404.3-118.9,217.1-53.7,229.6,76.8L229.6,76.8z"/>
<path class="st2" d="M252.1,69.6c6.5,116.2,54.6,189,144.4,218.5C531.2,332.3,805.8,350,966.8,446c160.9,96,460.6,21.8,432.8-143
	c-27.9-164.7-55.9-418.7-605.3-418.7C428-115.6,247.3-53.9,252.1,69.6L252.1,69.6z"/>
<path class="st3" d="M275.1,62.3c0.2,109.6,41.8,178.3,125,206.2c124.8,41.7,383,58.4,529.9,149c146.9,90.6,433.5,20.5,415.6-134.9
	c-17.9-155.4-31.3-395-549.6-395C450.6-112.3,276.9-54.1,275.1,62.3L275.1,62.3z"/>
<path class="st4" d="M298.7,55.1c-5.2,103,30.6,167.6,107.4,193.8C521.4,288.2,763.3,303.9,897,389
	c133.7,85.1,406.4,19.3,397.2-126.8c-9.2-146.1-10.1-371.3-497.3-371.3C472.2-109.1,306.1-54.3,298.7,55.1L298.7,55.1z"/>
<path class="st5" d="M322.8,47.9c-9.7,96.5,20.8,156.9,91.5,181.4c106.1,36.7,331.8,51.4,452.9,131.1
	c121.1,79.7,379.6,18.1,377.9-118.7c-1.7-136.8,8-347.6-448.1-347.6C492.9-105.8,334.8-54.6,322.8,47.9L322.8,47.9z"/>
<path class="st6" d="M347.3,40.7c-13.4,89.9,12.2,146.2,77,169.1c97.2,34.2,306.8,47.9,416.1,122.2
	c109.3,74.3,352.9,16.9,357.5-110.6c4.6-127.4,23.2-323.9-401.8-323.9C512.8-102.5,363.2-54.8,347.3,40.7L347.3,40.7z"/>
<path class="st7" d="M372.2,33.5c-16.4,83.3,4.9,135.5,63.9,156.7c88.6,31.7,282.3,44.4,380.3,113.2c98,68.8,326.3,15.6,336.2-102.5
	c9.8-118.1,35.8-300.2-358.1-300.2C531.9-99.3,391.1-55,372.2,33.5L372.2,33.5z"/>
<path class="st8" d="M397.6,26.3c-18.7,76.7-1.2,124.8,52.2,144.3c80.2,29.2,258.1,40.9,345.4,104.3c87.3,63.4,299.9,14.4,314-94.4
	C1123.3,71.7,1154.9-96,792.1-96C550.3-96,418.7-55.2,397.6,26.3L397.6,26.3z"/>
<path class="st9" d="M423.3,19.1C403,89.2,416.9,133.2,465,151c72.1,26.7,234.3,37.4,311.5,95.4c77.2,58,273.6,13.2,291-86.3
	c17.4-99.5,53.3-252.8-278.4-252.8C568-92.7,446-55.5,423.3,19.1L423.3,19.1z"/>
<path class="st10" d="M449.3,11.8c-21.2,63.6-10.3,103.4,32.5,119.6c64.3,24.2,210.8,33.9,278.4,86.4
	c67.6,52.5,247.4,11.9,267.2-78.2c19.8-90.1,58.5-229.1-242.1-229.1C585-89.5,472.9-55.7,449.3,11.8L449.3,11.8z"/>
<path class="st11" d="M475.7,4.6c-21.5,57-13.4,92.7,24.4,107.2c56.7,21.7,187.7,30.4,246.2,77.5c58.6,47.1,221.4,10.7,242.7-70.1
	c21.3-80.8,61.5-205.4-208-205.4C601.3-86.2,499.6-55.9,475.7,4.6L475.7,4.6z"/>
<path class="st12" d="M502.4-2.6c-21.2,50.4-15.4,82,17.4,94.8c49.3,19.2,164.8,26.9,214.8,68.5c50,41.7,195.4,9.5,217.4-62
	c22-71.5,62.4-181.7-176-181.7C617.1-82.9,525.9-56.2,502.4-2.6L502.4-2.6z"/>
</svg>
